<svg width="200" height="200" viewBox="0 0 200 200" xmlns="http://www.w3.org/2000/svg">
  <!-- 1. 背景：一个融合了“文件”与“气泡”的黑色块 -->
  <!-- 这是一个圆角矩形，但在右下角特意拉出了一个气泡尖角 -->
  <path d="M40 20 H160 C171 20 180 29 180 40 V140 C180 151 171 160 160 160 H140 L140 185 L110 160 H40 C29 160 20 151 20 140 V40 C20 29 29 20 40 20 Z" fill="#1A1A1A"/>
  
  <!-- 2. 内部装饰：顶部的绿色代码条 (象征微信/状态正常) -->
  <rect x="50" y="50" width="100" height="12" rx="6" fill="#07C160"/>
  
  <!-- 3. 核心符号：Markdown 的 "M" / 向下箭头 -->
  <!-- 使用纯白色，利用负空间形成强对比 -->
  <path d="M60 85 L60 130 H80 L80 110 L100 130 L120 110 L120 130 H140 L140 85 L120 85 L100 105 L80 85 Z" fill="#FFFFFF"/>
</svg>