<svg width="32" height="32" viewBox="0 0 32 32" fill="none" xmlns="http://www.w3.org/2000/svg">
  <rect width="32" height="32" rx="8" fill="#1A1A1A"/>
  <g transform="translate(4, 4) scale(0.047)">
    <path d="M97.0429363,33.2328226 C93.8517735,23.3994764 84.6994049,16.7418003 74.3725769,16.7418003 C64.0457489,16.7418003 54.8933804,23.3994802 51.7022175,33.2328226 L0,192.549528 L45.3407226,192.549528 L97.0429363,33.2328226 Z" fill="#07C160"/>
    <path d="M176.364586,137.94268 C179.555749,147.77603 188.708118,154.433703 199.034946,154.433703 C209.361774,154.433703 218.514142,147.77603 221.705305,137.94268 C215.322979,157.609357 197.018235,170.924729 176.364586,170.924729 C155.710938,170.924729 137.406197,157.609357 131.023871,137.94268 L97.0429402,33.2328226 C93.8517735,23.3994764 84.6994049,16.7418003 74.3725769,16.7418003 C64.0457489,16.7418003 54.8933804,23.3994802 51.7022175,33.2328226 C58.0845432,13.5661264 76.3892879,0.25077413 97.0429363,0.25077413 C117.696585,0.25077413 136.001326,13.5661264 142.383663,33.2328226 C159.37415,85.5877431 159.374129,85.5877498 176.364586,137.94268 Z" fill="#05a850"/>
    <path d="M221.705305,137.94268 C218.514142,147.77603 209.361774,154.433703 199.034946,154.433703 C188.708118,154.433703 179.555749,147.77603 176.364586,137.94268 C194.763672,81.2472392 206.090655,46.3439534 210.345536,33.2328226 C216.727858,13.5661264 235.032603,0.25077413 255.686251,0.25077413 C276.3399,0.25077413 294.644641,13.5661264 301.026966,33.2328226 C297.835804,23.3994764 288.683435,16.7418003 278.356607,16.7418003 C268.029779,16.7418003 258.87741,23.3994802 255.686248,33.2328226 C238.695778,85.5877519 238.695763,85.587747 221.705305,137.94268 Z" fill="#07C160"/>
    <path d="M302.547756,164.291731 C299.661311,173.186075 302.823384,182.929748 310.380161,188.426766 C317.936962,193.923783 328.169617,193.923783 335.726394,188.426766 C343.283172,182.929748 346.445245,173.186075 343.5588,164.291731 L323.053291,101.105369 C311.307231,137.300047 304.472053,158.362168 302.547756,164.291731 Z" fill="#05a850"/>
  </g>
</svg>
